<?xml version="1.0" encoding="UTF-8"?>
<svg width="300" height="100" viewBox="0 0 300 100" xmlns="http://www.w3.org/2000/svg">
  <defs>
    <!-- Ethereal gradient for W -->
    <linearGradient id="etherealGradient" x1="0%" y1="0%" x2="100%" y2="100%">
      <stop offset="0%" style="stop-color:#7C3AED;stop-opacity:1" />
      <stop offset="50%" style="stop-color:#8B5CF6;stop-opacity:1" />
      <stop offset="100%" style="stop-color:#A855F7;stop-opacity:1" />
    </linearGradient>
    
    <!-- Tranquil gradient for U -->
    <linearGradient id="tranquilGradient" x1="0%" y1="0%" x2="100%" y2="100%">
      <stop offset="0%" style="stop-color:#06B6D4;stop-opacity:1" />
      <stop offset="50%" style="stop-color:#0891B2;stop-opacity:1" />
      <stop offset="100%" style="stop-color:#0E7490;stop-opacity:1" />
    </linearGradient>
    
    <!-- Novelty gradient for N -->
    <linearGradient id="noveltyGradient" x1="0%" y1="0%" x2="100%" y2="100%">
      <stop offset="0%" style="stop-color:#0EA5E9;stop-opacity:1" />
      <stop offset="50%" style="stop-color:#0284C7;stop-opacity:1" />
      <stop offset="100%" style="stop-color:#0369A1;stop-opacity:1" />
    </linearGradient>
    
    <!-- Dawn gradient for A -->
    <linearGradient id="dawnGradient" x1="0%" y1="0%" x2="100%" y2="100%">
      <stop offset="0%" style="stop-color:#F59E0B;stop-opacity:1" />
      <stop offset="50%" style="stop-color:#D97706;stop-opacity:1" />
      <stop offset="100%" style="stop-color:#B45309;stop-opacity:1" />
    </linearGradient>
    
    <!-- Mystical glow filter -->
    <filter id="mysticalGlow">
      <feGaussianBlur stdDeviation="2" result="coloredBlur"/>
      <feMerge> 
        <feMergeNode in="coloredBlur"/>
        <feMergeNode in="SourceGraphic"/>
      </feMerge>
    </filter>
    
    <!-- Cosmic shimmer filter -->
    <filter id="cosmicShimmer">
      <feGaussianBlur stdDeviation="1" result="blur"/>
      <feColorMatrix in="blur" type="matrix" values="1 0 0 0 0  0 1 0 0 0  0 0 1 0 0  0 0 0 20 -8" result="goo"/>
      <feComposite in="SourceGraphic" in2="goo" operator="atop"/>
    </filter>
  </defs>
  
  <!-- Background cosmic field -->
  <rect width="300" height="100" fill="#0F172A" opacity="0.9"/>
  
  <!-- Subtle star field -->
  <g opacity="0.3">
    <circle cx="20" cy="20" r="1" fill="#E2E8F0">
      <animate attributeName="opacity" values="0.3;1;0.3" dur="3s" repeatCount="indefinite"/>
    </circle>
    <circle cx="280" cy="30" r="1" fill="#E2E8F0">
      <animate attributeName="opacity" values="0.3;1;0.3" dur="2.5s" repeatCount="indefinite"/>
    </circle>
    <circle cx="150" cy="15" r="1" fill="#E2E8F0">
      <animate attributeName="opacity" values="0.3;1;0.3" dur="4s" repeatCount="indefinite"/>
    </circle>
    <circle cx="50" cy="80" r="1" fill="#E2E8F0">
      <animate attributeName="opacity" values="0.3;1;0.3" dur="3.5s" repeatCount="indefinite"/>
    </circle>
    <circle cx="250" cy="75" r="1" fill="#E2E8F0">
      <animate attributeName="opacity" values="0.3;1;0.3" dur="2s" repeatCount="indefinite"/>
    </circle>
  </g>
  
  <!-- W letter - Ethereal Wisdom -->
  <g transform="translate(15, 25)">
    <!-- Letter shadow -->
    <path d="M 0 5 L 15 45 L 30 25 L 45 45 L 60 5 L 50 5 L 37.5 30 L 30 20 L 22.5 30 L 10 5 Z" 
          fill="#1F2937" opacity="0.5" transform="translate(2, 2)"/>
    <!-- Main letter -->
    <path d="M 0 5 L 15 45 L 30 25 L 45 45 L 60 5 L 50 5 L 37.5 30 L 30 20 L 22.5 30 L 10 5 Z" 
          fill="url(#etherealGradient)" filter="url(#mysticalGlow)"/>
    <!-- Mystical accent -->
    <circle cx="30" cy="25" r="3" fill="#A855F7" opacity="0.7">
      <animate attributeName="r" values="2;4;2" dur="2s" repeatCount="indefinite"/>
    </circle>
  </g>
  
  <!-- U letter - Tranquil Understanding -->
  <g transform="translate(70, 25)">
    <!-- Letter shadow -->
    <path d="M 10 5 Q 10 45 30 45 Q 50 45 50 5 L 40 5 Q 40 35 30 35 Q 20 35 20 5 Z" 
          fill="#1F2937" opacity="0.5" transform="translate(2, 2)"/>
    <!-- Main letter -->
    <path d="M 10 5 Q 10 45 30 45 Q 50 45 50 5 L 40 5 Q 40 35 30 35 Q 20 35 20 5 Z" 
          fill="url(#tranquilGradient)" filter="url(#mysticalGlow)"/>
    <!-- Tranquil wave -->
    <path d="M 15 30 Q 25 25 35 30" stroke="#06B6D4" stroke-width="2" fill="none" opacity="0.6">
      <animate attributeName="d" values="M 15 30 Q 25 25 35 30;M 15 30 Q 25 35 35 30;M 15 30 Q 25 25 35 30" dur="3s" repeatCount="indefinite"/>
    </path>
  </g>
  
  <!-- N letter - Novelty -->
  <g transform="translate(125, 25)">
    <!-- Letter shadow -->
    <path d="M 5 5 L 5 45 L 15 45 L 15 15 L 40 45 L 50 45 L 50 5 L 40 5 L 40 35 L 15 5 Z" 
          fill="#1F2937" opacity="0.5" transform="translate(2, 2)"/>
    <!-- Main letter -->
    <path d="M 5 5 L 5 45 L 15 45 L 15 15 L 40 45 L 50 45 L 50 5 L 40 5 L 40 35 L 15 5 Z" 
          fill="url(#noveltyGradient)" filter="url(#mysticalGlow)"/>
    <!-- Growth symbol -->
    <path d="M 27.5 25 L 25 20 L 27.5 22.5 L 30 20 L 27.5 25" 
          fill="#0EA5E9" opacity="0.8">
      <animateTransform attributeName="transform" type="scale" values="1;1.2;1" dur="2.5s" repeatCount="indefinite"/>
    </path>
  </g>
  
  <!-- A letter - Dawn Awakening -->
  <g transform="translate(180, 25)">
    <!-- Letter shadow -->
    <path d="M 25 5 L 5 45 L 15 45 L 18 38 L 32 38 L 35 45 L 45 45 Z M 25 15 L 30 28 L 20 28 Z" 
          fill="#1F2937" opacity="0.5" transform="translate(2, 2)"/>
    <!-- Main letter -->
    <path d="M 25 5 L 5 45 L 15 45 L 18 38 L 32 38 L 35 45 L 45 45 Z M 25 15 L 30 28 L 20 28 Z" 
          fill="url(#dawnGradient)" filter="url(#mysticalGlow)"/>
    <!-- Rising sun -->
    <circle cx="25" cy="10" r="4" fill="#F59E0B" opacity="0.8">
      <animate attributeName="cy" values="10;8;10" dur="4s" repeatCount="indefinite"/>
      <animate attributeName="opacity" values="0.8;1;0.8" dur="4s" repeatCount="indefinite"/>
    </circle>
  </g>
  
  <!-- Subtle energy field connecting letters -->
  <g opacity="0.3">
    <path d="M 60 30 Q 90 20 110 30" stroke="#8B5CF6" stroke-width="1" fill="none" stroke-dasharray="5,5">
      <animate attributeName="stroke-dashoffset" values="0;10;0" dur="2s" repeatCount="indefinite"/>
    </path>
    <path d="M 110 30 Q 145 40 170 30" stroke="#06B6D4" stroke-width="1" fill="none" stroke-dasharray="3,3">
      <animate attributeName="stroke-dashoffset" values="0;6;0" dur="3s" repeatCount="indefinite"/>
    </path>
    <path d="M 170 30 Q 200 25 220 30" stroke="#0EA5E9" stroke-width="1" fill="none" stroke-dasharray="4,4">
      <animate attributeName="stroke-dashoffset" values="0;8;0" dur="2.5s" repeatCount="indefinite"/>
    </path>
  </g>
  
  <!-- Quantum particles -->
  <g opacity="0.6">
    <circle cx="15" cy="60" r="1.5" fill="#7C3AED">
      <animate attributeName="cy" values="60;55;60" dur="2s" repeatCount="indefinite"/>
      <animate attributeName="opacity" values="0.6;1;0.6" dur="2s" repeatCount="indefinite"/>
    </circle>
    <circle cx="70" cy="65" r="1.5" fill="#06B6D4">
      <animate attributeName="cy" values="65;60;65" dur="2.5s" repeatCount="indefinite"/>
      <animate attributeName="opacity" values="0.6;1;0.6" dur="2.5s" repeatCount="indefinite"/>
    </circle>
    <circle cx="125" cy="55" r="1.5" fill="#0EA5E9">
      <animate attributeName="cy" values="55;50;55" dur="1.8s" repeatCount="indefinite"/>
      <animate attributeName="opacity" values="0.6;1;0.6" dur="1.8s" repeatCount="indefinite"/>
    </circle>
    <circle cx="180" cy="62" r="1.5" fill="#F59E0B">
      <animate attributeName="cy" values="62;57;62" dur="3s" repeatCount="indefinite"/>
      <animate attributeName="opacity" values="0.6;1;0.6" dur="3s" repeatCount="indefinite"/>
    </circle>
  </g>
  
  <!-- Tagline text -->
  <text x="150" y="85" font-family="Inter, sans-serif" font-size="10" fill="#E2E8F0" 
        text-anchor="middle" opacity="0.8" letter-spacing="2">
    Your Inbox, Your Power, Your Peace
  </text>
  
  <!-- Mystical border glow -->
  <rect x="5" y="5" width="290" height="90" fill="none" stroke="#7C3AED" stroke-width="0.5" 
        stroke-dasharray="10,5" opacity="0.3">
    <animate attributeName="stroke-dashoffset" values="0;15;0" dur="4s" repeatCount="indefinite"/>
  </rect>
</svg>